<svg viewBox="0 0 900 600" preserveAspectRatio='none'><path fill="#e3ddd7" d="M0 67L82 79L164 55L245 103L327 79L409 61L491 67L573 55L655 85L736 61L818 49L900 37L900 0L818 0L736 0L655 0L573 0L491 0L409 0L327 0L245 0L164 0L82 0L0 0Z"/><path fill="#f9f6f5" d="M0 169L82 169L164 199L245 175L327 145L409 187L491 127L573 175L655 157L736 121L818 199L900 133L900 35L818 47L736 59L655 83L573 53L491 65L409 59L327 77L245 101L164 53L82 77L0 65Z"/><path fill="#efe9e4" d="M0 313L82 265L164 349L245 355L327 283L409 307L491 271L573 265L655 313L736 313L818 397L900 295L900 131L818 197L736 119L655 155L573 173L491 125L409 185L327 143L245 173L164 197L82 167L0 167Z"/><path fill="#eae3dd" d="M0 391L82 319L164 457L245 415L327 373L409 385L491 349L573 379L655 403L736 439L818 505L900 349L900 293L818 395L736 311L655 311L573 263L491 269L409 305L327 281L245 353L164 347L82 263L0 311Z"/><path fill="#e3ddd7" d="M0 601L82 601L164 601L245 601L327 601L409 601L491 601L573 601L655 601L736 601L818 601L900 601L900 347L818 503L736 437L655 401L573 377L491 347L409 383L327 371L245 413L164 455L82 317L0 389Z"/></svg>